<svg width="44" height="48" viewBox="0 0 44 48" fill="none" xmlns="http://www.w3.org/2000/svg">
<g clip-path="url(#clip0_17_183)">
<path d="M33.7223 24.3495C37.6394 24.3495 41.0797 27.1151 43.0484 31.2788C43.2006 31.238 43.3478 31.2023 43.5 31.1717C41.4754 26.7376 37.8526 23.7729 33.7223 23.7729C29.592 23.7729 25.9691 26.7376 23.9445 31.1717C24.0968 31.2023 24.249 31.238 24.3961 31.2788C26.3598 27.1151 29.8051 24.3495 33.7223 24.3495Z" fill="#D5AE5E"/>
<path d="M33.7223 26.7886C36.8022 26.7886 39.5321 28.8347 41.2167 31.9728C41.3537 31.9013 41.4958 31.8401 41.6328 31.7789C39.8771 28.4163 36.9849 26.2171 33.7223 26.2171C30.4597 26.2171 27.5624 28.4163 25.8118 31.7789C25.9539 31.8401 26.0909 31.9065 26.2279 31.9728C27.9125 28.8347 30.6423 26.7886 33.7223 26.7886Z" fill="#D5AE5E"/>
<path d="M33.7223 28.651C31.2055 28.651 28.9628 30.2583 27.5167 32.7484C27.6435 32.8403 27.7704 32.9321 27.8922 33.0239C29.2622 30.7074 31.3628 29.2225 33.7172 29.2225C36.0716 29.2225 38.1773 30.7074 39.5422 33.0239C39.6691 32.927 39.7909 32.8351 39.9177 32.7484C38.4716 30.2583 36.2289 28.651 33.7121 28.651H33.7223Z" fill="#D5AE5E"/>
<path d="M9.77775 24.3495C13.6949 24.3495 17.1351 27.1151 19.1039 31.2788C19.2561 31.238 19.4033 31.2023 19.5555 31.1717C17.5309 26.7376 13.908 23.7729 9.77775 23.7729C5.64746 23.7729 2.02457 26.7376 1.52588e-05 31.1717C0.152237 31.2023 0.304462 31.238 0.451611 31.2788C2.41528 27.1151 5.86057 24.3495 9.77775 24.3495Z" fill="#D5AE5E"/>
<path d="M9.77776 26.7886C12.8577 26.7886 15.5876 28.8347 17.2722 31.9728C17.4092 31.9013 17.5512 31.8401 17.6882 31.7789C15.9326 28.4163 13.0404 26.2171 9.77776 26.2171C6.51513 26.2171 3.61784 28.4163 1.86728 31.7789C2.00936 31.8401 2.14636 31.9065 2.28335 31.9728C3.96795 28.8347 6.6978 26.7886 9.77776 26.7886Z" fill="#D5AE5E"/>
<path d="M9.77777 28.651C7.26103 28.651 5.01829 30.2583 3.57218 32.7484C3.69903 32.8403 3.82588 32.9321 3.94766 33.0239C5.31766 30.7074 7.41832 29.2225 9.77269 29.2225C12.1271 29.2225 14.2328 30.7074 15.5977 33.0239C15.7246 32.927 15.8464 32.8351 15.9732 32.7484C14.5271 30.2583 12.2844 28.651 9.76762 28.651H9.77777Z" fill="#D5AE5E"/>
<path d="M9.77775 8.5162C13.6949 8.5162 17.1351 11.2818 19.1039 15.4455C19.2561 15.4047 19.4033 15.369 19.5555 15.3384C17.5309 10.9042 13.908 7.93961 9.77775 7.93961C5.64746 7.93961 2.02457 10.9042 1.52588e-05 15.3384C0.152237 15.369 0.304462 15.4047 0.451611 15.4455C2.41528 11.2818 5.86057 8.5162 9.77775 8.5162Z" fill="#D5AE5E"/>
<path d="M9.77776 10.9552C12.8577 10.9552 15.5876 13.0014 17.2722 16.1394C17.4092 16.068 17.5512 16.0068 17.6882 15.9455C15.9326 12.5829 13.0404 10.3837 9.77776 10.3837C6.51513 10.3837 3.61784 12.5829 1.86728 15.9455C2.00936 16.0068 2.14636 16.0731 2.28335 16.1394C3.96795 13.0014 6.6978 10.9552 9.77776 10.9552Z" fill="#D5AE5E"/>
<path d="M9.77777 12.8177C7.26103 12.8177 5.01829 14.425 3.57218 16.9151C3.69903 17.0069 3.82588 17.0988 3.94766 17.1906C5.31766 14.874 7.41832 13.3892 9.77269 13.3892C12.1271 13.3892 14.2328 14.874 15.5977 17.1906C15.7246 17.0937 15.8464 17.0018 15.9732 16.9151C14.5271 14.425 12.2844 12.8177 9.76762 12.8177H9.77777Z" fill="#D5AE5E"/>
<path d="M33.7223 39.3256C37.6394 39.3256 41.0797 42.0912 43.0484 46.2549C43.2006 46.2141 43.3478 46.1784 43.5 46.1478C41.4754 41.7136 37.8526 38.749 33.7223 38.749C29.592 38.749 25.9691 41.7136 23.9445 46.1478C24.0968 46.1784 24.249 46.2141 24.3961 46.2549C26.3598 42.0912 29.8051 39.3256 33.7223 39.3256Z" fill="#D5AE5E"/>
<path d="M33.7223 41.7595C36.8022 41.7595 39.5321 43.8057 41.2167 46.9438C41.3537 46.8723 41.4958 46.8111 41.6328 46.7499C39.8771 43.3873 36.9849 41.188 33.7223 41.188C30.4597 41.188 27.5624 43.3873 25.8118 46.7499C25.9539 46.8111 26.0909 46.8774 26.2279 46.9438C27.9125 43.8057 30.6423 41.7595 33.7223 41.7595Z" fill="#D5AE5E"/>
<path d="M33.7223 43.622C31.2055 43.622 28.9628 45.2293 27.5167 47.7194C27.6435 47.8112 27.7704 47.903 27.8922 47.9949C29.2622 45.6783 31.3628 44.1935 33.7172 44.1935C36.0716 44.1935 38.1773 45.6783 39.5422 47.9949C39.6691 47.8979 39.7909 47.8061 39.9177 47.7194C38.4716 45.2293 36.2289 43.622 33.7121 43.622H33.7223Z" fill="#D5AE5E"/>
<path d="M21.4075 31.8197C25.3247 31.8197 28.7649 34.5904 30.7336 38.749C30.8859 38.7082 31.033 38.6725 31.1852 38.6419C29.1607 34.2077 25.5378 31.2431 21.4075 31.2431C17.2772 31.2431 13.6543 34.2077 11.6298 38.6419C11.782 38.6725 11.9342 38.7082 12.0814 38.749C14.045 34.5853 17.4903 31.8197 21.4075 31.8197Z" fill="#D5AE5E"/>
<path d="M21.4075 34.2587C24.4875 34.2587 27.2173 36.3049 28.9019 39.4429C29.0389 39.3715 29.181 39.3103 29.318 39.249C27.5624 35.8864 24.6701 33.6872 21.4075 33.6872C18.1449 33.6872 15.2476 35.8864 13.497 39.249C13.6391 39.3103 13.7761 39.3766 13.9131 39.4429C15.5977 36.3049 18.3276 34.2587 21.4075 34.2587Z" fill="#D5AE5E"/>
<path d="M21.4075 36.1212C18.8908 36.1212 16.6481 37.7285 15.2019 40.2186C15.3288 40.3104 15.4556 40.4023 15.5774 40.4941C16.9474 38.1775 19.0481 36.6927 21.4025 36.6927C23.7568 36.6927 25.8626 38.1775 27.2275 40.4941C27.3543 40.3972 27.4761 40.3053 27.603 40.2186C26.1569 37.7285 23.9141 36.1212 21.3974 36.1212H21.4075Z" fill="#D5AE5E"/>
<path d="M21.4075 16.5528C25.3247 16.5528 28.7649 19.3184 30.7336 23.4821C30.8859 23.4413 31.033 23.4056 31.1852 23.3749C29.1607 18.9408 25.5378 15.9762 21.4075 15.9762C17.2772 15.9762 13.6543 18.9408 11.6298 23.3749C11.782 23.4056 11.9342 23.4413 12.0814 23.4821C14.045 19.3184 17.4903 16.5528 21.4075 16.5528Z" fill="#D5AE5E"/>
<path d="M21.4075 18.9867C24.4875 18.9867 27.2173 21.0328 28.9019 24.1709C29.0389 24.0995 29.181 24.0383 29.318 23.977C27.5624 20.6144 24.6701 18.4152 21.4075 18.4152C18.1449 18.4152 15.2476 20.6144 13.497 23.977C13.6391 24.0383 13.7761 24.1046 13.9131 24.1709C15.5977 21.0328 18.3276 18.9867 21.4075 18.9867Z" fill="#D5AE5E"/>
<path d="M21.4075 20.8543C18.8908 20.8543 16.6481 22.4616 15.2019 24.9517C15.3288 25.0435 15.4556 25.1353 15.5774 25.2272C16.9474 22.9106 19.0481 21.4258 21.4025 21.4258C23.7568 21.4258 25.8626 22.9106 27.2275 25.2272C27.3543 25.1302 27.4761 25.0384 27.603 24.9517C26.1569 22.4616 23.9141 20.8543 21.3974 20.8543H21.4075Z" fill="#D5AE5E"/>
<path d="M21.4075 0.571489C25.3247 0.571489 28.7649 3.33709 30.7336 7.5008C30.8859 7.45998 31.033 7.42426 31.1852 7.39364C29.1607 2.9646 25.5378 0 21.4075 0C17.2772 0 13.6543 2.9646 11.6298 7.39875C11.782 7.42936 11.9342 7.46508 12.0814 7.5059C14.045 3.34219 17.4903 0.576592 21.4075 0.576592V0.571489Z" fill="#D5AE5E"/>
<path d="M21.4075 3.01052C24.4875 3.01052 27.2173 5.05665 28.9019 8.19474C29.0389 8.1233 29.181 8.06207 29.318 8.00084C27.5624 4.63824 24.6701 2.43903 21.4075 2.43903C18.1449 2.43903 15.2476 4.63824 13.497 8.00084C13.6391 8.06207 13.7761 8.12841 13.9131 8.19474C15.5977 5.05665 18.3276 3.01052 21.4075 3.01052Z" fill="#D5AE5E"/>
<path d="M21.4075 4.87296C18.8908 4.87296 16.6481 6.48027 15.2019 8.97033C15.3288 9.06218 15.4556 9.15402 15.5774 9.24587C16.9474 6.9293 19.0481 5.44444 21.4025 5.44444C23.7568 5.44444 25.8626 6.9293 27.2275 9.24587C27.3543 9.14892 27.4761 9.05707 27.603 8.97033C26.1569 6.48027 23.9141 4.87296 21.3974 4.87296H21.4075Z" fill="#D5AE5E"/>
</g>
<defs>
<clipPath id="clip0_17_183">
<rect width="43.5" height="48" fill="white" transform="matrix(-1 0 0 1 43.5 0)"/>
</clipPath>
</defs>
</svg>
