<svg width="69" height="54" viewBox="0 0 69 54" fill="none" xmlns="http://www.w3.org/2000/svg">
<g clip-path="url(#clip0_37_623)">
<path d="M34.0751 24.578C40.852 24.578 46.3641 19.0658 46.3641 12.289C46.3641 5.51215 40.852 0 34.0751 0C27.2983 0 21.7861 5.51215 21.7861 12.289C21.7861 19.0658 27.2983 24.578 34.0751 24.578ZM34.0274 10.0937C35.5784 10.0937 36.8431 13.1003 36.8431 16.7989C36.8431 20.4976 35.5784 23.5042 34.0274 23.5042C32.4764 23.5042 31.2117 20.4976 31.2117 16.7989C31.2117 13.1003 32.4764 10.0937 34.0274 10.0937Z" fill="#002D52"/>
<path d="M34.0751 29.422C27.2983 29.422 21.7861 34.9342 21.7861 41.711C21.7861 48.4879 27.2983 54 34.0751 54C40.852 54 46.3641 48.4879 46.3641 41.711C46.3641 34.9342 40.852 29.422 34.0751 29.422ZM34.1229 43.9063C32.5718 43.9063 31.3071 40.8997 31.3071 37.2011C31.3071 33.5024 32.5718 30.4958 34.1229 30.4958C35.6739 30.4958 36.9386 33.5024 36.9386 37.2011C36.9386 40.8997 35.6739 43.9063 34.1229 43.9063Z" fill="#002D52"/>
<path d="M12.289 14.6991C5.51215 14.6991 0 20.2112 0 26.9881C0 33.7649 5.51215 39.2771 12.289 39.2771C19.0658 39.2771 24.578 33.7649 24.578 26.9881C24.578 20.2112 19.0658 14.6991 12.289 14.6991ZM16.7751 29.8515C13.0764 29.8515 10.0698 28.5868 10.0698 27.0358C10.0698 25.4848 13.0764 24.2201 16.7751 24.2201C20.4737 24.2201 23.4803 25.4848 23.4803 27.0358C23.4803 28.5868 20.4737 29.8515 16.7751 29.8515Z" fill="#002D52"/>
<path d="M56.1953 14.6991C49.4185 14.6991 43.9063 20.2112 43.9063 26.9881C43.9063 33.7649 49.4185 39.2771 56.1953 39.2771C62.9722 39.2771 68.4843 33.7649 68.4843 26.9881C68.4843 20.2112 62.9722 14.6991 56.1953 14.6991ZM51.7092 29.7561C48.0106 29.7561 45.004 28.4914 45.004 26.9404C45.004 25.3893 48.0106 24.1246 51.7092 24.1246C55.4079 24.1246 58.4145 25.3893 58.4145 26.9404C58.4145 28.4914 55.4079 29.7561 51.7092 29.7561Z" fill="#002D52"/>
</g>
<defs>
<clipPath id="clip0_37_623">
<rect width="68.4843" height="54" fill="white"/>
</clipPath>
</defs>
</svg>
