<svg width="29" height="15" viewBox="0 0 29 15" fill="none" xmlns="http://www.w3.org/2000/svg">
<g clip-path="url(#clip0_17_276)">
<path d="M6.71469 7.81972C6.21109 7.90061 5.70376 8.05854 5.20015 8.30123C4.46154 8.74036 3.76396 8.82126 3.02534 8.46301C1.86146 7.94298 0.891562 7.49999 0.231284 7.09938C0.0746077 6.97996 0 6.81817 0 6.61787C0.0373038 6.37904 0.156676 6.21725 0.309622 6.13636C1.39516 5.81663 2.4434 5.65485 3.53267 5.73574C4.61822 5.73574 5.47247 5.69722 5.93877 5.65485C9.3558 4.85361 12.8101 4.41062 16.3428 4.25269C15.6042 3.33204 14.7126 2.76964 13.6271 2.56933C12.5789 2.36902 11.7619 1.7681 11.1427 0.847451C10.986 0.685663 10.986 0.485355 11.1054 0.285047C11.2173 0.0808866 11.3366 -7.11693e-06 11.5306 -7.11693e-06C13.6271 -0.0385279 15.6452 0.43913 17.6634 1.36363C20.7297 3.08551 23.8745 4.32973 27.0975 5.05007C27.6794 5.21186 28.2241 5.53158 28.6904 5.97072C28.8844 6.1325 29 6.40985 29 6.69106C29 7.01078 28.8844 7.29198 28.6904 7.49229C28.1457 8.05469 27.4482 8.37442 26.7095 8.49383C24.2251 9.09475 21.972 9.73805 19.9949 10.5778C17.2008 11.6988 14.403 13.1048 11.5716 14.8652C11.3404 15.0655 11.1837 15.027 11.068 14.7458C10.9114 14.5454 10.9114 14.3837 11.1054 14.2257C13.7838 11.6602 16.6562 9.41448 19.6069 7.57318C15.3356 7.37287 11.068 7.49229 6.71842 7.81201L6.71469 7.81972Z" fill="#E9D7B5"/>
</g>
<defs>
<clipPath id="clip0_17_276">
<rect width="29" height="15" fill="white"/>
</clipPath>
</defs>
</svg>
