<svg width="44" height="48" viewBox="0 0 44 48" fill="none" xmlns="http://www.w3.org/2000/svg">
<g clip-path="url(#clip0_17_154)">
<path d="M10.2777 24.3495C6.36055 24.3495 2.92033 27.1151 0.951592 31.2788C0.79937 31.238 0.652222 31.2023 0.5 31.1717C2.52455 26.7376 6.14744 23.7729 10.2777 23.7729C14.408 23.7729 18.0309 26.7376 20.0555 31.1717C19.9032 31.2023 19.751 31.238 19.6039 31.2788C17.6402 27.1151 14.1949 24.3495 10.2777 24.3495Z" fill="#D5AE5E"/>
<path d="M10.2777 26.7886C7.19776 26.7886 4.46791 28.8347 2.78332 31.9728C2.64632 31.9013 2.50425 31.8401 2.36725 31.7789C4.12288 28.4163 7.0151 26.2171 10.2777 26.2171C13.5403 26.2171 16.4376 28.4163 18.1882 31.7789C18.0461 31.8401 17.9091 31.9065 17.7721 31.9728C16.0875 28.8347 13.3577 26.7886 10.2777 26.7886Z" fill="#D5AE5E"/>
<path d="M10.2777 28.651C12.7945 28.651 15.0372 30.2583 16.4833 32.7484C16.3565 32.8403 16.2296 32.9321 16.1079 33.0239C14.7379 30.7074 12.6372 29.2225 10.2828 29.2225C7.92845 29.2225 5.82271 30.7074 4.45779 33.0239C4.33094 32.927 4.20916 32.8351 4.08231 32.7484C5.52842 30.2583 7.77116 28.651 10.2879 28.651H10.2777Z" fill="#D5AE5E"/>
<path d="M34.2223 24.3495C30.3051 24.3495 26.8649 27.1151 24.8961 31.2788C24.7439 31.238 24.5968 31.2023 24.4445 31.1717C26.4691 26.7376 30.092 23.7729 34.2223 23.7729C38.3526 23.7729 41.9754 26.7376 44 31.1717C43.8478 31.2023 43.6956 31.238 43.5484 31.2788C41.5847 27.1151 38.1394 24.3495 34.2223 24.3495Z" fill="#D5AE5E"/>
<path d="M34.2223 26.7886C31.1423 26.7886 28.4125 28.8347 26.7279 31.9728C26.5909 31.9013 26.4488 31.8401 26.3118 31.7789C28.0674 28.4163 30.9596 26.2171 34.2223 26.2171C37.4849 26.2171 40.3822 28.4163 42.1327 31.7789C41.9907 31.8401 41.8537 31.9065 41.7167 31.9728C40.0321 28.8347 37.3022 26.7886 34.2223 26.7886Z" fill="#D5AE5E"/>
<path d="M34.2223 28.651C36.739 28.651 38.9817 30.2583 40.4279 32.7484C40.301 32.8403 40.1741 32.9321 40.0524 33.0239C38.6824 30.7074 36.5817 29.2225 34.2273 29.2225C31.873 29.2225 29.7672 30.7074 28.4023 33.0239C28.2755 32.927 28.1537 32.8351 28.0268 32.7484C29.4729 30.2583 31.7157 28.651 34.2324 28.651H34.2223Z" fill="#D5AE5E"/>
<path d="M34.2223 8.5162C30.3051 8.5162 26.8649 11.2818 24.8961 15.4455C24.7439 15.4047 24.5968 15.369 24.4445 15.3384C26.4691 10.9042 30.092 7.93961 34.2223 7.93961C38.3526 7.93961 41.9754 10.9042 44 15.3384C43.8478 15.369 43.6956 15.4047 43.5484 15.4455C41.5847 11.2818 38.1394 8.5162 34.2223 8.5162Z" fill="#D5AE5E"/>
<path d="M34.2223 10.9552C31.1423 10.9552 28.4125 13.0014 26.7279 16.1394C26.5909 16.068 26.4488 16.0068 26.3118 15.9455C28.0674 12.5829 30.9596 10.3837 34.2223 10.3837C37.4849 10.3837 40.3822 12.5829 42.1327 15.9455C41.9907 16.0068 41.8537 16.0731 41.7167 16.1394C40.0321 13.0014 37.3022 10.9552 34.2223 10.9552Z" fill="#D5AE5E"/>
<path d="M34.2223 12.8177C36.739 12.8177 38.9817 14.425 40.4279 16.9151C40.301 17.0069 40.1741 17.0988 40.0524 17.1906C38.6824 14.874 36.5817 13.3892 34.2273 13.3892C31.873 13.3892 29.7672 14.874 28.4023 17.1906C28.2755 17.0937 28.1537 17.0018 28.0268 16.9151C29.4729 14.425 31.7157 12.8177 34.2324 12.8177H34.2223Z" fill="#D5AE5E"/>
<path d="M10.2777 39.3256C6.36055 39.3256 2.92033 42.0912 0.951592 46.2549C0.79937 46.2141 0.652222 46.1784 0.5 46.1478C2.52455 41.7136 6.14744 38.749 10.2777 38.749C14.408 38.749 18.0309 41.7136 20.0555 46.1478C19.9032 46.1784 19.751 46.2141 19.6039 46.2549C17.6402 42.0912 14.1949 39.3256 10.2777 39.3256Z" fill="#D5AE5E"/>
<path d="M10.2777 41.7595C7.19776 41.7595 4.46791 43.8057 2.78332 46.9438C2.64632 46.8723 2.50425 46.8111 2.36725 46.7499C4.12288 43.3873 7.0151 41.188 10.2777 41.188C13.5403 41.188 16.4376 43.3873 18.1882 46.7499C18.0461 46.8111 17.9091 46.8774 17.7721 46.9438C16.0875 43.8057 13.3577 41.7595 10.2777 41.7595Z" fill="#D5AE5E"/>
<path d="M10.2777 43.622C12.7945 43.622 15.0372 45.2293 16.4833 47.7194C16.3565 47.8112 16.2296 47.903 16.1079 47.9949C14.7379 45.6783 12.6372 44.1935 10.2828 44.1935C7.92845 44.1935 5.82271 45.6783 4.45779 47.9949C4.33094 47.8979 4.20916 47.8061 4.08231 47.7194C5.52842 45.2293 7.77116 43.622 10.2879 43.622H10.2777Z" fill="#D5AE5E"/>
<path d="M22.5925 31.8197C18.6753 31.8197 15.2351 34.5904 13.2664 38.749C13.1141 38.7082 12.967 38.6725 12.8148 38.6419C14.8393 34.2077 18.4622 31.2431 22.5925 31.2431C26.7228 31.2431 30.3457 34.2077 32.3702 38.6419C32.218 38.6725 32.0658 38.7082 31.9186 38.749C29.955 34.5853 26.5097 31.8197 22.5925 31.8197Z" fill="#D5AE5E"/>
<path d="M22.5925 34.2587C19.5125 34.2587 16.7827 36.3049 15.0981 39.4429C14.9611 39.3715 14.819 39.3103 14.682 39.249C16.4376 35.8864 19.3299 33.6872 22.5925 33.6872C25.8551 33.6872 28.7524 35.8864 30.503 39.249C30.3609 39.3103 30.2239 39.3766 30.0869 39.4429C28.4023 36.3049 25.6724 34.2587 22.5925 34.2587Z" fill="#D5AE5E"/>
<path d="M22.5925 36.1212C25.1092 36.1212 27.352 37.7285 28.7981 40.2186C28.6712 40.3104 28.5444 40.4023 28.4226 40.4941C27.0526 38.1775 24.9519 36.6927 22.5976 36.6927C20.2432 36.6927 18.1375 38.1775 16.7725 40.4941C16.6457 40.3972 16.5239 40.3053 16.3971 40.2186C17.8432 37.7285 20.0859 36.1212 22.6027 36.1212H22.5925Z" fill="#D5AE5E"/>
<path d="M22.5925 16.5528C18.6753 16.5528 15.2351 19.3184 13.2664 23.4821C13.1141 23.4413 12.967 23.4056 12.8148 23.3749C14.8393 18.9408 18.4622 15.9762 22.5925 15.9762C26.7228 15.9762 30.3457 18.9408 32.3702 23.3749C32.218 23.4056 32.0658 23.4413 31.9186 23.4821C29.955 19.3184 26.5097 16.5528 22.5925 16.5528Z" fill="#D5AE5E"/>
<path d="M22.5925 18.9867C19.5125 18.9867 16.7827 21.0328 15.0981 24.1709C14.9611 24.0995 14.819 24.0383 14.682 23.977C16.4376 20.6144 19.3299 18.4152 22.5925 18.4152C25.8551 18.4152 28.7524 20.6144 30.503 23.977C30.3609 24.0383 30.2239 24.1046 30.0869 24.1709C28.4023 21.0328 25.6724 18.9867 22.5925 18.9867Z" fill="#D5AE5E"/>
<path d="M22.5925 20.8543C25.1092 20.8543 27.352 22.4616 28.7981 24.9517C28.6712 25.0435 28.5444 25.1353 28.4226 25.2272C27.0526 22.9106 24.9519 21.4258 22.5976 21.4258C20.2432 21.4258 18.1375 22.9106 16.7725 25.2272C16.6457 25.1302 16.5239 25.0384 16.3971 24.9517C17.8432 22.4616 20.0859 20.8543 22.6027 20.8543H22.5925Z" fill="#D5AE5E"/>
<path d="M22.5925 0.571489C18.6753 0.571489 15.2351 3.33709 13.2664 7.5008C13.1141 7.45998 12.967 7.42426 12.8148 7.39364C14.8393 2.9646 18.4622 0 22.5925 0C26.7228 0 30.3457 2.9646 32.3702 7.39875C32.218 7.42936 32.0658 7.46508 31.9186 7.5059C29.955 3.34219 26.5097 0.576592 22.5925 0.576592V0.571489Z" fill="#D5AE5E"/>
<path d="M22.5925 3.01052C19.5125 3.01052 16.7827 5.05665 15.0981 8.19474C14.9611 8.1233 14.819 8.06207 14.682 8.00084C16.4376 4.63824 19.3299 2.43903 22.5925 2.43903C25.8551 2.43903 28.7524 4.63824 30.503 8.00084C30.3609 8.06207 30.2239 8.12841 30.0869 8.19474C28.4023 5.05665 25.6724 3.01052 22.5925 3.01052Z" fill="#D5AE5E"/>
<path d="M22.5925 4.87296C25.1092 4.87296 27.352 6.48027 28.7981 8.97033C28.6712 9.06218 28.5444 9.15402 28.4226 9.24587C27.0526 6.9293 24.9519 5.44444 22.5976 5.44444C20.2432 5.44444 18.1375 6.9293 16.7725 9.24587C16.6457 9.14892 16.5239 9.05707 16.3971 8.97033C17.8432 6.48027 20.0859 4.87296 22.6027 4.87296H22.5925Z" fill="#D5AE5E"/>
</g>
<defs>
<clipPath id="clip0_17_154">
<rect width="43.5" height="48" fill="white" transform="translate(0.5)"/>
</clipPath>
</defs>
</svg>
